<svg width="210" height="14" viewBox="0 0 210 14" fill="none" xmlns="http://www.w3.org/2000/svg">
<path d="M3.66 8.208C4.212 8.208 4.66 8.164 5.004 8.076C4.892 7.252 4.484 6.56 3.78 6C3.7 6.712 3.66 7.448 3.66 8.208ZM0.636 5.352C0.636 4.536 0.712 3.752 0.864 3H8.052C7.94 3.56 7.812 4.044 7.668 4.452C7.476 4.46 7.196 4.468 6.828 4.476C6.468 4.484 6.192 4.492 6 4.5C6.088 4.228 6.136 3.988 6.144 3.78C5.32 3.78 4.644 3.804 4.116 3.852C4.052 4.14 3.972 4.58 3.876 5.172C5.508 5.372 6.772 5.768 7.668 6.36C7.572 7.376 7.4 8.256 7.152 9H1.128C0.8 7.848 0.636 6.632 0.636 5.352ZM16.7527 8.904V9H13.9687C13.9367 8.544 13.8687 8.072 13.7647 7.584C13.2687 8.088 12.7087 8.56 12.0847 9H9.28866C9.23266 8.672 9.20466 8.24 9.20466 7.704C9.20466 7.16 9.28466 6.616 9.44466 6.072C10.0207 5.904 10.5727 5.62 11.1007 5.22C11.6367 4.82 12.0247 4.388 12.2647 3.924C12.0487 3.588 11.8207 3.28 11.5807 3H15.5647C16.3567 4.72 16.7527 6.688 16.7527 8.904ZM13.5487 6.708C13.3407 5.996 13.0687 5.324 12.7327 4.692C12.3567 5.796 12.1407 6.84 12.0847 7.824C12.6607 7.528 13.1487 7.156 13.5487 6.708ZM21.1999 7.5C21.1999 7.956 21.2199 8.456 21.2599 9H18.6199C18.2919 7.728 18.1279 6.376 18.1279 4.944C18.1279 4.216 18.1719 3.568 18.2599 3H24.7639C24.9959 3.904 25.1239 4.98 25.1479 6.228C23.9639 6.756 22.6479 7.1 21.1999 7.26V7.5ZM21.2119 6.432C21.7239 6.368 22.1519 6.24 22.4959 6.048C22.3679 5.2 22.0239 4.448 21.4639 3.792C21.3359 4.584 21.2519 5.464 21.2119 6.432ZM34.0403 3.996C34.0403 5.564 33.8883 7.232 33.5843 9H30.7163C30.8443 8.056 30.9283 7.04 30.9683 5.952C30.5523 5.696 30.0883 5.54 29.5763 5.484C29.5283 6.66 29.4003 7.832 29.1923 9H26.4683C26.5723 8.216 26.6243 7.28 26.6243 6.192C26.6243 5.096 26.5523 4.032 26.4083 3H29.5763C29.5923 3.328 29.6003 3.816 29.6003 4.464C30.0643 4.608 30.5243 4.804 30.9803 5.052C30.9803 4.308 30.9523 3.624 30.8963 3H34.0163C34.0323 3.448 34.0403 3.78 34.0403 3.996ZM42.8152 8.904V9H40.0312C39.9992 8.544 39.9312 8.072 39.8272 7.584C39.3312 8.088 38.7712 8.56 38.1472 9H35.3512C35.2952 8.672 35.2672 8.24 35.2672 7.704C35.2672 7.16 35.3472 6.616 35.5072 6.072C36.0832 5.904 36.6352 5.62 37.1632 5.22C37.6992 4.82 38.0872 4.388 38.3272 3.924C38.1112 3.588 37.8832 3.28 37.6432 3H41.6272C42.4192 4.72 42.8152 6.688 42.8152 8.904ZM39.6112 6.708C39.4032 5.996 39.1312 5.324 38.7952 4.692C38.4192 5.796 38.2032 6.84 38.1472 7.824C38.7232 7.528 39.2112 7.156 39.6112 6.708ZM51.5944 3.228C51.3224 3.292 51.0944 3.324 50.9104 3.324C50.7264 3.324 50.5504 3.312 50.3824 3.288C50.1344 3.584 49.9104 3.98 49.7104 4.476C49.5104 4.972 49.3584 5.416 49.2544 5.808C49.1584 6.2 49.0504 6.68 48.9304 7.248C48.3224 10.144 47.7144 12.2 47.1064 13.416C46.7064 13.536 46.2104 13.652 45.6184 13.764C46.4184 12.396 47.0664 10.808 47.5624 9H45.0784C44.4464 6.952 44.1184 4.952 44.0944 3H47.5984C47.4304 3.744 47.3464 4.536 47.3464 5.376C47.3464 6.208 47.4824 7.16 47.7544 8.232C47.8104 8.016 47.9064 7.64 48.0424 7.104C48.1784 6.56 48.2784 6.172 48.3424 5.94C48.4064 5.708 48.5024 5.38 48.6304 4.956C48.7664 4.532 48.8864 4.216 48.9904 4.008C49.1024 3.792 49.2384 3.552 49.3984 3.288C49.6864 2.816 50.0664 2.496 50.5384 2.328C50.6744 2.288 50.9504 2.248 51.3664 2.208C51.7824 2.16 52.0824 2.076 52.2664 1.956C52.0504 2.452 51.8264 2.876 51.5944 3.228ZM57.5738 9H54.8018C54.6578 7.392 54.2498 5.964 53.5778 4.716C53.1458 5.7 52.9298 6.604 52.9298 7.428C52.9298 7.988 53.0338 8.512 53.2418 9H50.1218C50.0658 8.672 50.0378 8.232 50.0378 7.68C50.0378 7.128 50.1138 6.592 50.2658 6.072C50.8498 5.904 51.4098 5.62 51.9458 5.22C52.4818 4.812 52.8658 4.38 53.0978 3.924C52.9218 3.644 52.6938 3.336 52.4138 3H56.3858C57.1778 4.704 57.5738 6.704 57.5738 9ZM58.9787 9C58.7867 8.2 58.6907 7.2 58.6907 6C58.6907 4.792 58.8067 3.792 59.0387 3H61.9907C61.8627 3.744 61.7787 4.424 61.7387 5.04C63.1387 5.2 64.3827 5.552 65.4707 6.096C65.4467 7.168 65.3227 8.136 65.0987 9H58.9787ZM61.7147 5.868C61.7147 6.708 61.8147 7.484 62.0147 8.196C62.4387 7.668 62.7027 7 62.8067 6.192C62.4547 6.008 62.0907 5.9 61.7147 5.868ZM70.9896 3.732C70.7096 3.684 70.4376 3.66 70.1736 3.66C69.9176 3.66 69.6056 3.704 69.2376 3.792C69.1176 4.296 69.0576 4.788 69.0576 5.268C69.0576 6.508 69.6096 7.46 70.7136 8.124C71.4496 7.636 72.1136 7.028 72.7056 6.3C72.7296 6.62 72.7496 7.108 72.7656 7.764C72.1736 8.228 71.5696 8.592 70.9536 8.856C70.3376 9.12 69.5696 9.252 68.6496 9.252H68.3736C67.6536 8.94 67.0856 8.48 66.6696 7.872C66.2616 7.264 66.0576 6.624 66.0576 5.952C66.0576 5.056 66.4256 4.296 67.1616 3.672C67.8976 3.04 68.9656 2.724 70.3656 2.724C71.1496 2.724 71.9696 2.824 72.8256 3.024C72.6976 3.528 72.5376 4.004 72.3456 4.452C71.8416 4.5 71.3216 4.524 70.7856 4.524C70.8656 4.3 70.9336 4.036 70.9896 3.732ZM80.0236 2.916H80.4196C80.9316 2.916 81.3116 2.856 81.5596 2.736C81.2076 3.256 80.8676 3.708 80.5396 4.092H80.3476C79.9396 4.092 79.5436 4.028 79.1596 3.9C78.6156 4.348 78.1796 4.944 77.8516 5.688C78.6996 5.904 79.6436 6.032 80.6836 6.072C80.9236 6.68 81.0876 7.656 81.1756 9H78.0676C77.9316 8.408 77.7236 7.864 77.4436 7.368C77.1716 6.864 76.8876 6.52 76.5916 6.336C76.5356 6.992 76.5076 7.52 76.5076 7.92C76.5076 8.32 76.5196 8.68 76.5436 9H73.9036C73.7516 7.824 73.6756 6.832 73.6756 6.024C73.6756 5.208 73.7356 4.2 73.8556 3H77.1916C76.9516 3.992 76.7876 4.824 76.6996 5.496C77.0596 4.904 77.4356 4.408 77.8276 4.008C78.2276 3.6 78.6996 3.256 79.2436 2.976C79.4516 2.936 79.7116 2.916 80.0236 2.916ZM82.58 9C82.684 8.2 82.736 7.256 82.736 6.168C82.736 5.072 82.664 4.016 82.52 3H85.688C85.696 3.144 85.7 3.528 85.7 4.152C85.7 4.776 85.628 5.604 85.484 6.636C86.124 6.052 86.696 5.364 87.2 4.572C87.192 4.076 87.148 3.552 87.068 3H90.176C90.192 3.48 90.2 3.84 90.2 4.08C90.2 5.632 90.048 7.272 89.744 9H86.876C87.036 7.928 87.14 6.96 87.188 6.096C86.74 6.792 86.004 7.76 84.98 9H82.58ZM95.3167 1.62C95.5967 1.796 95.9247 1.884 96.3007 1.884C96.6847 1.884 97.0287 1.752 97.3327 1.488C97.3487 1.488 97.3127 1.568 97.2247 1.728C97.1367 1.88 96.9887 2.04 96.7807 2.208C96.5167 2.432 96.1607 2.544 95.7127 2.544H95.6527C95.2687 2.544 94.8767 2.42 94.4767 2.172L94.3087 2.076C94.3487 1.836 94.4207 1.572 94.5247 1.284C94.6367 0.988 94.6967 0.84 94.7047 0.84L95.3167 1.62ZM91.8847 9C91.9887 8.2 92.0407 7.256 92.0407 6.168C92.0407 5.072 91.9687 4.016 91.8247 3H94.9927C95.0007 3.144 95.0047 3.528 95.0047 4.152C95.0047 4.776 94.9327 5.604 94.7887 6.636C95.4287 6.052 96.0007 5.364 96.5047 4.572C96.4967 4.076 96.4527 3.552 96.3727 3H99.4807C99.4967 3.48 99.5047 3.84 99.5047 4.08C99.5047 5.632 99.3527 7.272 99.0487 9H96.1807C96.3407 7.928 96.4447 6.96 96.4927 6.096C96.0447 6.792 95.3087 7.76 94.2847 9H91.8847ZM105.949 8.964C105.237 8.052 104.881 7.116 104.881 6.156C104.881 5.196 105.281 4.384 106.081 3.72C106.881 3.056 107.905 2.724 109.153 2.724C109.817 2.724 110.477 2.824 111.133 3.024C111.709 3.752 111.997 4.532 111.997 5.364C111.997 6.412 111.569 7.324 110.713 8.1C109.857 8.876 108.821 9.264 107.605 9.264C107.085 9.264 106.533 9.164 105.949 8.964ZM107.773 3.768C107.493 4.248 107.353 4.812 107.353 5.46C107.353 6.108 107.493 6.708 107.773 7.26C108.061 7.804 108.453 8.196 108.949 8.436C109.325 7.956 109.513 7.4 109.513 6.768C109.513 6.136 109.357 5.548 109.045 5.004C108.741 4.46 108.317 4.048 107.773 3.768ZM116.031 8.208C116.583 8.208 117.031 8.164 117.375 8.076C117.263 7.252 116.855 6.56 116.151 6C116.071 6.712 116.031 7.448 116.031 8.208ZM113.007 5.352C113.007 4.536 113.083 3.752 113.235 3H120.423C120.311 3.56 120.183 4.044 120.039 4.452C119.847 4.46 119.567 4.468 119.199 4.476C118.839 4.484 118.563 4.492 118.371 4.5C118.459 4.228 118.507 3.988 118.515 3.78C117.691 3.78 117.015 3.804 116.487 3.852C116.423 4.14 116.343 4.58 116.247 5.172C117.879 5.372 119.143 5.768 120.039 6.36C119.943 7.376 119.771 8.256 119.523 9H113.499C113.171 7.848 113.007 6.632 113.007 5.352ZM128.704 3.228C128.432 3.292 128.204 3.324 128.02 3.324C127.836 3.324 127.66 3.312 127.492 3.288C127.244 3.584 127.02 3.98 126.82 4.476C126.62 4.972 126.468 5.416 126.364 5.808C126.268 6.2 126.16 6.68 126.04 7.248C125.432 10.144 124.824 12.2 124.216 13.416C123.816 13.536 123.32 13.652 122.728 13.764C123.528 12.396 124.176 10.808 124.672 9H122.188C121.556 6.952 121.228 4.952 121.204 3H124.708C124.54 3.744 124.456 4.536 124.456 5.376C124.456 6.208 124.592 7.16 124.864 8.232C124.92 8.016 125.016 7.64 125.152 7.104C125.288 6.56 125.388 6.172 125.452 5.94C125.516 5.708 125.612 5.38 125.74 4.956C125.876 4.532 125.996 4.216 126.1 4.008C126.212 3.792 126.348 3.552 126.508 3.288C126.796 2.816 127.176 2.496 127.648 2.328C127.784 2.288 128.06 2.248 128.476 2.208C128.892 2.16 129.192 2.076 129.376 1.956C129.16 2.452 128.936 2.876 128.704 3.228ZM132.899 8.22C133.443 8.22 133.887 8.176 134.231 8.088C134.087 7.2 133.679 6.54 133.007 6.108C132.935 6.82 132.899 7.524 132.899 8.22ZM129.875 5.4C129.875 4.56 129.951 3.76 130.103 3H136.763C136.403 4.12 135.715 4.932 134.699 5.436C135.619 5.764 136.355 6.22 136.907 6.804C136.835 7.548 136.663 8.28 136.391 9H130.355C130.035 7.888 129.875 6.688 129.875 5.4ZM133.103 5.28C133.495 5.176 133.859 4.996 134.195 4.74C134.531 4.484 134.771 4.168 134.915 3.792C134.275 3.792 133.755 3.812 133.355 3.852C133.259 4.316 133.175 4.792 133.103 5.28ZM145.767 3.996C145.767 5.564 145.615 7.232 145.311 9H142.443C142.571 8.056 142.655 7.04 142.695 5.952C142.279 5.696 141.815 5.54 141.303 5.484C141.255 6.66 141.127 7.832 140.919 9H138.195C138.299 8.216 138.351 7.28 138.351 6.192C138.351 5.096 138.279 4.032 138.135 3H141.303C141.319 3.328 141.327 3.816 141.327 4.464C141.791 4.608 142.251 4.804 142.707 5.052C142.707 4.308 142.679 3.624 142.623 3H145.743C145.759 3.448 145.767 3.78 145.767 3.996ZM147.738 8.964C147.026 8.052 146.67 7.116 146.67 6.156C146.67 5.196 147.07 4.384 147.87 3.72C148.67 3.056 149.694 2.724 150.942 2.724C151.606 2.724 152.266 2.824 152.922 3.024C153.498 3.752 153.786 4.532 153.786 5.364C153.786 6.412 153.358 7.324 152.502 8.1C151.646 8.876 150.61 9.264 149.394 9.264C148.874 9.264 148.322 9.164 147.738 8.964ZM149.562 3.768C149.282 4.248 149.142 4.812 149.142 5.46C149.142 6.108 149.282 6.708 149.562 7.26C149.85 7.804 150.242 8.196 150.738 8.436C151.114 7.956 151.302 7.4 151.302 6.768C151.302 6.136 151.146 5.548 150.834 5.004C150.53 4.46 150.106 4.048 149.562 3.768ZM158.504 1.62C158.784 1.796 159.112 1.884 159.488 1.884C159.872 1.884 160.216 1.752 160.52 1.488C160.536 1.488 160.5 1.568 160.412 1.728C160.324 1.88 160.176 2.04 159.968 2.208C159.704 2.432 159.348 2.544 158.9 2.544H158.84C158.456 2.544 158.064 2.42 157.664 2.172L157.496 2.076C157.536 1.836 157.608 1.572 157.712 1.284C157.824 0.988 157.884 0.84 157.892 0.84L158.504 1.62ZM155.072 9C155.176 8.2 155.228 7.256 155.228 6.168C155.228 5.072 155.156 4.016 155.012 3H158.18C158.188 3.144 158.192 3.528 158.192 4.152C158.192 4.776 158.12 5.604 157.976 6.636C158.616 6.052 159.188 5.364 159.692 4.572C159.684 4.076 159.64 3.552 159.56 3H162.668C162.684 3.48 162.692 3.84 162.692 4.08C162.692 5.632 162.54 7.272 162.236 9H159.368C159.528 7.928 159.632 6.96 159.68 6.096C159.232 6.792 158.496 7.76 157.472 9H155.072ZM173.048 3.732C172.768 3.684 172.496 3.66 172.232 3.66C171.976 3.66 171.664 3.704 171.296 3.792C171.176 4.296 171.116 4.788 171.116 5.268C171.116 6.508 171.668 7.46 172.772 8.124C173.508 7.636 174.172 7.028 174.764 6.3C174.788 6.62 174.808 7.108 174.824 7.764C174.232 8.228 173.628 8.592 173.012 8.856C172.396 9.12 171.628 9.252 170.708 9.252H170.432C169.712 8.94 169.144 8.48 168.728 7.872C168.32 7.264 168.116 6.624 168.116 5.952C168.116 5.056 168.484 4.296 169.22 3.672C169.956 3.04 171.024 2.724 172.424 2.724C173.208 2.724 174.028 2.824 174.884 3.024C174.756 3.528 174.596 4.004 174.404 4.452C173.9 4.5 173.38 4.524 172.844 4.524C172.924 4.3 172.992 4.036 173.048 3.732ZM183.522 8.904V9H180.738C180.706 8.544 180.638 8.072 180.534 7.584C180.038 8.088 179.478 8.56 178.854 9H176.058C176.002 8.672 175.974 8.24 175.974 7.704C175.974 7.16 176.054 6.616 176.214 6.072C176.79 5.904 177.342 5.62 177.87 5.22C178.406 4.82 178.794 4.388 179.034 3.924C178.818 3.588 178.59 3.28 178.35 3H182.334C183.126 4.72 183.522 6.688 183.522 8.904ZM180.318 6.708C180.11 5.996 179.838 5.324 179.502 4.692C179.126 5.796 178.91 6.84 178.854 7.824C179.43 7.528 179.918 7.156 180.318 6.708ZM192.421 9H189.649C189.505 7.392 189.097 5.964 188.425 4.716C187.993 5.7 187.777 6.604 187.777 7.428C187.777 7.988 187.881 8.512 188.089 9H184.969C184.913 8.672 184.885 8.232 184.885 7.68C184.885 7.128 184.961 6.592 185.113 6.072C185.697 5.904 186.257 5.62 186.793 5.22C187.329 4.812 187.713 4.38 187.945 3.924C187.769 3.644 187.541 3.336 187.261 3H191.233C192.025 4.704 192.421 6.704 192.421 9ZM194.378 8.964C193.666 8.052 193.31 7.116 193.31 6.156C193.31 5.196 193.71 4.384 194.51 3.72C195.31 3.056 196.334 2.724 197.582 2.724C198.246 2.724 198.906 2.824 199.562 3.024C200.138 3.752 200.426 4.532 200.426 5.364C200.426 6.412 199.998 7.324 199.142 8.1C198.286 8.876 197.25 9.264 196.034 9.264C195.514 9.264 194.962 9.164 194.378 8.964ZM196.202 3.768C195.922 4.248 195.782 4.812 195.782 5.46C195.782 6.108 195.922 6.708 196.202 7.26C196.49 7.804 196.882 8.196 197.378 8.436C197.754 7.956 197.942 7.4 197.942 6.768C197.942 6.136 197.786 5.548 197.474 5.004C197.17 4.46 196.746 4.048 196.202 3.768ZM209.189 3.996C209.189 5.564 209.037 7.232 208.733 9H205.865C205.993 8.056 206.077 7.04 206.117 5.952C205.701 5.696 205.237 5.54 204.725 5.484C204.677 6.66 204.549 7.832 204.341 9H201.617C201.721 8.216 201.773 7.28 201.773 6.192C201.773 5.096 201.701 4.032 201.557 3H204.725C204.741 3.328 204.749 3.816 204.749 4.464C205.213 4.608 205.673 4.804 206.129 5.052C206.129 4.308 206.101 3.624 206.045 3H209.165C209.181 3.448 209.189 3.78 209.189 3.996Z" fill="white"/>
</svg>
